<svg id="Capa_1" enable-background="new 0 0 512 512" height="512" viewBox="0 0 512 512" width="512" xmlns="http://www.w3.org/2000/svg"><g><g><g><path d="m310 310-281-3.511c-8.284 0-19.745-2.865-19.745-11.149l-1.755-1.34v-271.5c0-8.284 6.716-15 15-15h272.5c8.284 0 15 6.716 15 15v28.75l-2.191 5.367z" fill="#e15f78"/></g><path d="m81.25 51.25c-16.569 0-30 13.431-30 30v202.75c0 5.523-4.477 10-10 10h-33.75v1c0 8.284 6.716 15 15 15h28.75 258.75v-16-242.75z" fill="#d1546b"/><path d="m383.25 383.25-299.016-1.569c-8.284 0-16.979-5.163-16.979-13.447l-1.005-.984v-286c0-8.284 6.716-15 15-15h287c8.284 0 15 6.716 15 15v30.75l-8.207 17.638z" fill="#ffe07d"/><path d="m142 112c-16.569 0-30 13.431-30 30v215.25c0 5.523-4.477 10-10 10h-35.75v1c0 8.284 6.716 15 15 15h30.75 271.25v-16-255.25z" fill="#ffd064"/><path d="m487.617 502-341.553-1.468c-8.284 0-15-6.716-15-15l-2.106-340.723c0-8.284 4.035-15.957 12.319-15.957l1.723-1.852h346.5c8.284 0 15 6.716 15 15v346.5l-.989.702c0 8.284-7.61 12.798-15.894 12.798z" fill="#f9f8f9"/><path d="m504.5 488.5v1c0 8.284-6.716 15-15 15h-347.5c-8.284 0-15-6.716-15-15v-347.5c0-8.284 6.716-15 15-15h1v341.5c0 11.046 8.954 20 20 20z" fill="#e8e8e8"/><path d="m462.532 467.723-292.809-1.617c-3.866 0-7-3.134-7-7l-1.681-288.234c0-3.866 3.134-7 7-7l5.788-1.384h290.844c3.866 0 7 3.134 7 7v285.382l-2.142 5.853c0 3.866-3.134 7-7 7z" fill="#857e87"/><path d="m471.674 454.87-.004 7c0 3.86-3.13 7-7 7h-297.84c-3.87 0-7-3.14-7-7v-292.38c0-3.866 3.134-7 7-7l7-.001v281.381c0 6.075 4.925 11 11 11z" fill="#6f6571"/><path d="m416.076 418.058h-114.692c-5.058 0-9.159-4.101-9.159-9.159v-23.109l6.903-10.875-6.903-80.794c0-5.058 4.101-9.159 9.159-9.159l31.786 2.442 8.37-2.442h74.536c5.058 0 9.159 4.101 9.159 9.159v114.778c0 5.058-4.101 9.159-9.159 9.159z" fill="#ffe07d"/><path d="m358.22 374.13c-3.58 7.19-10.81 11.66-18.85 11.66h-47.145l-.005-91.67c0-5.06 4.11-9.16 9.16-9.16l40.16.002c-2.925 9.107-7.55 17.451-13.49 24.686-1.169 1.424-1.21 3.461-.101 4.932l28.241 37.471c4.84 6.419 5.62 14.879 2.03 22.079z" fill="#ffd064"/><path d="m333.17 261.85c0 15.33-5.438 29.391-14.49 40.359 0 0-3.781 2.078-5.335 3.61-11.456 11.293-25.245 16.798-42.601 16.798-6.805 0-14.383 1.612-20.527-.37-12.735-4.109-23.71-12.134-31.508-22.657 28.888-.861 34.517-22.022 43.652-39.186 10.395-19.53 24.022-35.352 58.368-36.294 7.821 10.55 12.441 23.6 12.441 37.74z" fill="#ff9161"/><path d="m320.73 224.11c-64.53 1.77-40.26 73.64-102.02 75.48-7.83-10.55-12.45-23.6-12.45-37.74 0-35.05 28.41-63.45 63.46-63.45 20.91 0 39.45 10.11 51.01 25.71z" fill="#ffa95f"/><path d="m318.68 302.209c-11.63 14.08-29.26 23.091-48.96 23.091-6.81 0-13.362-1.063-19.502-3.053l24.932-33.087c4.02-5.33 10.15-8.39 16.82-8.39 6.68 0 12.81 3.06 16.82 8.39z" fill="#f4805d"/><path d="m284.733 296.38-47.399 62.893c-4.501 5.973-.24 14.52 7.239 14.52h94.798c7.479 0 11.74-8.547 7.239-14.52l-47.399-62.893c-3.627-4.812-10.851-4.812-14.478 0z" fill="#c3aff0"/><path d="m332.26 433.103h-54.386c-7.509 0-13.597-6.614-13.597-14.772 0-8.158 6.087-14.772 13.597-14.772h54.386c7.509 0 13.597 6.614 13.597 14.772 0 8.159-6.088 14.772-13.597 14.772z" fill="#bde4ff"/></g><g><path d="m489.5 119.5h-98.75v-38.25c0-12.407-10.094-22.5-22.5-22.5h-50.75v-36.25c0-12.407-10.094-22.5-22.5-22.5h-272.5c-12.406 0-22.5 10.093-22.5 22.5v163.5c0 4.142 3.357 7.5 7.5 7.5s7.5-3.358 7.5-7.5v-163.5c0-4.136 3.364-7.5 7.5-7.5h272.5c4.136 0 7.5 3.364 7.5 7.5v36.25h-101.649c-4.143 0-7.5 3.358-7.5 7.5s3.357 7.5 7.5 7.5h167.399c4.136 0 7.5 3.364 7.5 7.5v38.25h-233.75c-12.406 0-22.5 10.093-22.5 22.5v233.75h-38.25c-4.136 0-7.5-3.364-7.5-7.5v-287c0-4.136 3.364-7.5 7.5-7.5h84.601c4.143 0 7.5-3.358 7.5-7.5s-3.357-7.5-7.5-7.5h-84.601c-12.406 0-22.5 10.093-22.5 22.5v221.25h-36.25c-4.136 0-7.5-3.364-7.5-7.5v-74c0-4.142-3.357-7.5-7.5-7.5s-7.5 3.358-7.5 7.5v74c0 12.407 10.094 22.5 22.5 22.5h36.25v50.75c0 12.407 10.094 22.5 22.5 22.5h38.25v98.75c0 12.407 10.094 22.5 22.5 22.5h347.5c12.406 0 22.5-10.093 22.5-22.5v-347.5c0-12.407-10.094-22.5-22.5-22.5zm7.5 370c0 4.136-3.364 7.5-7.5 7.5h-347.5c-4.136 0-7.5-3.364-7.5-7.5v-347.5c0-4.136 3.364-7.5 7.5-7.5h347.5c4.136 0 7.5 3.364 7.5 7.5z"/><path d="m471.674 154.989h-311.848c-4.143 0-7.5 3.358-7.5 7.5v306.376c0 4.142 3.357 7.5 7.5 7.5h311.848c4.143 0 7.5-3.358 7.5-7.5v-306.376c0-4.142-3.358-7.5-7.5-7.5zm-7.5 306.376h-296.848v-291.376h296.848z"/><path d="m249.987 330.023-18.643 24.737c-3.805 5.05-4.416 11.702-1.595 17.36s8.502 9.173 14.824 9.173h40.151v14.767h-6.851c-11.633 0-21.097 9.991-21.097 22.272s9.464 22.271 21.097 22.271h54.386c9.237 0 17.101-6.302 19.95-15.045h63.866c9.186 0 16.659-7.473 16.659-16.659v-47.649c0-4.142-3.357-7.5-7.5-7.5s-7.5 3.358-7.5 7.5v47.649c0 .915-.744 1.659-1.659 1.659h-64.048c-2.994-8.458-10.725-14.499-19.768-14.499h-32.535v-14.767h39.646c6.323 0 12.003-3.515 14.824-9.174s2.209-12.311-1.597-17.36l-32.437-43.04c5.615-5.673 10.185-12.181 13.57-19.256h23.051v12.597c0 4.142 3.357 7.5 7.5 7.5s7.5-3.358 7.5-7.5v-12.597h14.382v43.714c0 4.142 3.357 7.5 7.5 7.5s7.5-3.358 7.5-7.5v-43.714h14.911c.915 0 1.659.744 1.659 1.659v32.129c0 4.142 3.357 7.5 7.5 7.5s7.5-3.358 7.5-7.5v-32.129c0-9.186-7.474-16.659-16.659-16.659h-14.911v-33.743c0-4.142-3.357-7.5-7.5-7.5s-7.5 3.358-7.5 7.5v33.743h-14.382v-11.38c0-4.142-3.357-7.5-7.5-7.5s-7.5 3.358-7.5 7.5v11.38h-17.844c1.139-5.071 1.728-10.302 1.728-15.614 0-39.123-31.828-70.951-70.951-70.951-12.603 0-24.982 3.349-35.803 9.684-3.574 2.093-4.775 6.688-2.683 10.262 2.094 3.574 6.687 4.775 10.263 2.683 8.522-4.99 18.281-7.628 28.223-7.628 13.807 0 26.453 5.037 36.221 13.357-25.942 5.119-35.553 23.317-44.178 39.669-8.96 16.989-16.14 30.568-40.007 31.826-5.08-8.453-7.987-18.347-7.987-28.902 0-9.215 2.286-18.347 6.61-26.407 1.958-3.65.586-8.196-3.063-10.154-3.652-1.958-8.196-.586-10.155 3.063-5.489 10.233-8.392 21.817-8.392 33.498.002 32.211 21.3 59.609 51.224 68.175zm88.369 88.309c0 4.009-2.735 7.271-6.097 7.271h-54.386c-3.361 0-6.097-3.262-6.097-7.271 0-4.01 2.735-7.272 6.097-7.272h54.386c3.362 0 6.097 3.262 6.097 7.272zm2.415-52.905c-.287.575-.758.866-1.4.866h-94.798c-.643 0-1.113-.292-1.4-.866-.286-.575-.235-1.127.15-1.64l47.399-62.893h.001c.388-.515.893-.623 1.248-.623s.861.108 1.25.623l47.398 62.894c.388.512.439 1.064.152 1.639zm-65.745-99.506c8.939-16.948 16.729-31.68 42.579-32.977 5.114 8.441 8.062 18.334 8.062 28.904 0 14.102-5.276 27.474-14.657 37.727l-5.809-7.708c-3.159-4.191-7.981-6.595-13.229-6.595s-10.069 2.404-13.228 6.595h.001l-18.884 25.056c-10.117-1.783-19.217-6.217-26.606-12.552 24.196-5.132 33.453-22.677 41.771-38.45z"/></g></g></svg>